<svg width="101" height="100" viewBox="0 0 101 100" fill="none" xmlns="http://www.w3.org/2000/svg">
<path d="M80.5 80C83.1522 80 85.6957 81.0536 87.5711 82.9289C89.4464 84.8043 90.5 87.3478 90.5 90C90.5 92.6522 89.4464 95.1957 87.5711 97.0711C85.6957 98.9464 83.1522 100 80.5 100C77.8478 100 75.3043 98.9464 73.4289 97.0711C71.5536 95.1957 70.5 92.6522 70.5 90C70.5 84.45 74.95 80 80.5 80ZM0.5 0H16.85L21.55 10H95.5C96.8261 10 98.0979 10.5268 99.0355 11.4645C99.9732 12.4021 100.5 13.6739 100.5 15C100.5 15.85 100.25 16.7 99.9 17.5L82 49.85C80.3 52.9 77 55 73.25 55H36L31.5 63.15L31.35 63.75C31.35 64.0815 31.4817 64.3995 31.7161 64.6339C31.9505 64.8683 32.2685 65 32.6 65H90.5V75H30.5C27.8478 75 25.3043 73.9464 23.4289 72.0711C21.5536 70.1957 20.5 67.6522 20.5 65C20.5 63.25 20.95 61.6 21.7 60.2L28.5 47.95L10.5 10H0.5V0ZM30.5 80C33.1522 80 35.6957 81.0536 37.5711 82.9289C39.4464 84.8043 40.5 87.3478 40.5 90C40.5 92.6522 39.4464 95.1957 37.5711 97.0711C35.6957 98.9464 33.1522 100 30.5 100C27.8478 100 25.3043 98.9464 23.4289 97.0711C21.5536 95.1957 20.5 92.6522 20.5 90C20.5 84.45 24.95 80 30.5 80ZM75.5 45L89.4 20H26.2L38 45H75.5Z" fill="black" fill-opacity="0.5"/>
</svg>
