<svg width="80" height="80" viewBox="0 0 80 80" fill="none" xmlns="http://www.w3.org/2000/svg">
<path d="M40 6.25C33.3249 6.25 26.7997 8.2294 21.2495 11.9379C15.6994 15.6464 11.3735 20.9174 8.81908 27.0844C6.26462 33.2514 5.59626 40.0374 6.89851 46.5843C8.20076 53.1312 11.4151 59.1448 16.1352 63.8649C20.8552 68.5849 26.8689 71.7992 33.4157 73.1015C39.9626 74.4038 46.7486 73.7354 52.9156 71.1809C59.0826 68.6265 64.3536 64.3007 68.0621 58.7505C71.7706 53.2003 73.75 46.6751 73.75 40C73.7401 31.052 70.1811 22.4733 63.8539 16.1461C57.5267 9.81891 48.948 6.25993 40 6.25ZM40 66.25C34.8083 66.25 29.7331 64.7105 25.4163 61.8261C21.0995 58.9417 17.735 54.842 15.7482 50.0454C13.7614 45.2489 13.2415 39.9709 14.2544 34.8789C15.2673 29.7869 17.7673 25.1096 21.4385 21.4384C25.1096 17.7673 29.7869 15.2672 34.8789 14.2544C39.9709 13.2415 45.2489 13.7614 50.0455 15.7482C54.842 17.735 58.9417 21.0995 61.8261 25.4163C64.7105 29.7331 66.25 34.8082 66.25 40C66.2426 46.9596 63.4746 53.6321 58.5533 58.5533C53.6321 63.4745 46.9597 66.2426 40 66.25ZM61.25 40C61.25 40.9946 60.8549 41.9484 60.1517 42.6516C59.4484 43.3549 58.4946 43.75 57.5 43.75H40C39.0055 43.75 38.0516 43.3549 37.3484 42.6516C36.6451 41.9484 36.25 40.9946 36.25 40V22.5C36.25 21.5054 36.6451 20.5516 37.3484 19.8483C38.0516 19.1451 39.0055 18.75 40 18.75C40.9946 18.75 41.9484 19.1451 42.6517 19.8483C43.3549 20.5516 43.75 21.5054 43.75 22.5V36.25H57.5C58.4946 36.25 59.4484 36.6451 60.1517 37.3483C60.8549 38.0516 61.25 39.0054 61.25 40Z" fill="black" fill-opacity="0.5"/>
</svg>
