<svg width="24" height="20" viewBox="0 0 24 20" fill="none" xmlns="http://www.w3.org/2000/svg">
<path fill-rule="evenodd" clip-rule="evenodd" d="M10.5554 0.620635C10.6815 0.431795 10.8622 0.275109 11.0794 0.166209C11.2967 0.0573086 11.5428 0 11.7934 0C12.0439 0 12.2901 0.0573086 12.5073 0.166209C12.7245 0.275109 12.9052 0.431795 13.0314 0.620635L16.2352 5.41864L22.4573 6.59464C22.702 6.64103 22.9286 6.74258 23.1143 6.88917C23.3 7.03575 23.4385 7.22225 23.5158 7.43006C23.5932 7.63787 23.6068 7.85974 23.5552 8.07355C23.5036 8.28737 23.3887 8.48565 23.2219 8.64863L18.9806 12.7896L19.6225 18.3146C19.6478 18.5322 19.6073 18.7517 19.5049 18.9513C19.4026 19.151 19.242 19.3237 19.0392 19.4522C18.8364 19.5807 18.5985 19.6606 18.3493 19.6838C18.1 19.7071 17.8482 19.6729 17.6188 19.5846L11.7934 17.3446L5.96794 19.5846C5.73859 19.6729 5.48672 19.7071 5.23747 19.6838C4.98823 19.6606 4.75033 19.5807 4.54754 19.4522C4.34475 19.3237 4.18416 19.151 4.0818 18.9513C3.97944 18.7517 3.9389 18.5322 3.96423 18.3146L4.60615 12.7896L0.364881 8.64964C0.197784 8.48666 0.0826137 8.2883 0.0308683 8.07435C-0.020877 7.86041 -0.00738722 7.63837 0.069991 7.43039C0.147369 7.22242 0.285929 7.03579 0.471837 6.88913C0.657745 6.74248 0.884497 6.64093 1.12946 6.59464L7.35151 5.41864L10.5554 0.620635ZM11.7934 2.73964L9.14201 6.71163C9.04176 6.86156 8.90681 6.99162 8.74577 7.09355C8.58473 7.19547 8.40112 7.26702 8.20664 7.30363L3.05751 8.27664L6.56745 11.7036C6.83568 11.9656 6.96521 12.3136 6.92509 12.6626L6.39436 17.2356L11.2156 15.3816C11.3977 15.3117 11.5944 15.2755 11.7934 15.2755C11.9923 15.2755 12.1891 15.3117 12.3711 15.3816L17.1924 17.2356L16.6617 12.6626C16.6415 12.49 16.6628 12.3155 16.7242 12.1504C16.7855 11.9853 16.8857 11.8331 17.0182 11.7036L20.5292 8.27664L15.3801 7.30363C15.1856 7.26702 15.002 7.19547 14.841 7.09355C14.6799 6.99162 14.545 6.86156 14.4447 6.71163L11.7934 2.73964Z" fill="#D0833F"/>
</svg>
