<svg width="21" height="20" viewBox="0 0 21 20" fill="none" xmlns="http://www.w3.org/2000/svg">
<g clip-path="url(#clip0_1234_374)">
<path d="M20.348 9.84783C20.348 4.40902 15.939 0 10.5002 0C5.06136 0 0.652344 4.40902 0.652344 9.84783C0.652344 14.7631 4.25353 18.8372 8.96145 19.576V12.6945H6.46102V9.84783H8.96145V7.67823C8.96145 5.21012 10.4317 3.84681 12.6811 3.84681C13.7582 3.84681 14.8855 4.03915 14.8855 4.03915V6.46264H13.6438C12.4205 6.46264 12.0389 7.2218 12.0389 8.00136V9.84783H14.7701L14.3335 12.6945H12.0389V19.576C16.7468 18.8372 20.348 14.7631 20.348 9.84783Z" fill="black"/>
</g>
<defs>
<clipPath id="clip0_1234_374">
<rect width="19.6957" height="19.6957" fill="white" transform="translate(0.652344)"/>
</clipPath>
</defs>
</svg>
