<svg width="21" height="20" viewBox="0 0 21 20" fill="none" xmlns="http://www.w3.org/2000/svg">
<g clip-path="url(#clip0_1234_366)">
<path d="M20.1561 10.0748C20.1561 9.40535 20.1018 8.7323 19.986 8.07373H10.6973V11.8659H16.0165C15.7958 13.089 15.0866 14.171 14.048 14.8585V17.3191H17.2215C19.085 15.6039 20.1561 13.0709 20.1561 10.0748Z" fill="black"/>
<path d="M10.6972 19.6964C13.3532 19.6964 15.5931 18.8243 17.2251 17.319L14.0516 14.8584C13.1687 15.4591 12.0289 15.7992 10.7009 15.7992C8.1317 15.7992 5.95334 14.0659 5.17174 11.7356H1.89697V14.2722C3.56873 17.5976 6.97377 19.6964 10.6972 19.6964Z" fill="black"/>
<path d="M5.16832 11.7356C4.75581 10.5125 4.75581 9.18812 5.16832 7.96506V5.42847H1.89717C0.500421 8.21112 0.500421 11.4895 1.89717 14.2721L5.16832 11.7356Z" fill="black"/>
<path d="M10.6972 3.89782C12.1012 3.87611 13.4582 4.40441 14.475 5.37418L17.2866 2.56258C15.5063 0.890822 13.1434 -0.0282846 10.6972 0.000663634C6.97377 0.000663634 3.56873 2.09941 1.89697 5.42846L5.16812 7.96505C5.94611 5.63109 8.12808 3.89782 10.6972 3.89782Z" fill="black"/>
</g>
<defs>
<clipPath id="clip0_1234_366">
<rect width="19.6957" height="19.6957" fill="white" transform="translate(0.652344)"/>
</clipPath>
</defs>
</svg>
