<svg width="26" height="32" viewBox="0 0 26 32" fill="none" xmlns="http://www.w3.org/2000/svg">
<path d="M13 32C9.38021 31.0667 6.39167 28.9397 4.03438 25.6192C1.67708 22.2987 0.498959 18.6123 0.500001 14.56V4.8L13 0L25.5 4.8V14.56C25.5 18.6133 24.3214 22.3003 21.9641 25.6208C19.6068 28.9413 16.6187 31.0677 13 32ZM13 28.64C15.7083 27.76 17.9479 26 19.7187 23.36C21.4896 20.72 22.375 17.7867 22.375 14.56V7L13 3.4L3.625 7V14.56C3.625 17.7867 4.51042 20.72 6.28125 23.36C8.05208 26 10.2917 27.76 13 28.64Z" fill="#FFBD83"/>
</svg>
