<svg width="32" height="22" viewBox="0 0 32 22" fill="none" xmlns="http://www.w3.org/2000/svg">
<path d="M4.00016 13L3.00016 11H10.0002L9.20016 9.00004H2.66683L1.66683 7.00004H12.0668L11.2668 5.00004H1.48016L0.333496 3.00004H5.3335C5.3335 2.2928 5.61445 1.61452 6.11454 1.11442C6.61464 0.614325 7.29292 0.333374 8.00016 0.333374H24.0002V5.66671H28.0002L32.0002 11V17.6667H29.3335C29.3335 18.7276 28.9121 19.745 28.1619 20.4951C27.4118 21.2453 26.3944 21.6667 25.3335 21.6667C24.2726 21.6667 23.2552 21.2453 22.5051 20.4951C21.7549 19.745 21.3335 18.7276 21.3335 17.6667H16.0002C16.0002 18.7276 15.5787 19.745 14.8286 20.4951C14.0784 21.2453 13.061 21.6667 12.0002 21.6667C10.9393 21.6667 9.92188 21.2453 9.17174 20.4951C8.42159 19.745 8.00016 18.7276 8.00016 17.6667H5.3335V13H4.00016ZM25.3335 19.6667C25.8639 19.6667 26.3726 19.456 26.7477 19.0809C27.1228 18.7058 27.3335 18.1971 27.3335 17.6667C27.3335 17.1363 27.1228 16.6276 26.7477 16.2525C26.3726 15.8774 25.8639 15.6667 25.3335 15.6667C24.8031 15.6667 24.2944 15.8774 23.9193 16.2525C23.5442 16.6276 23.3335 17.1363 23.3335 17.6667C23.3335 18.1971 23.5442 18.7058 23.9193 19.0809C24.2944 19.456 24.8031 19.6667 25.3335 19.6667ZM27.3335 7.66671H24.0002V11H29.9468L27.3335 7.66671ZM12.0002 19.6667C12.5306 19.6667 13.0393 19.456 13.4144 19.0809C13.7894 18.7058 14.0002 18.1971 14.0002 17.6667C14.0002 17.1363 13.7894 16.6276 13.4144 16.2525C13.0393 15.8774 12.5306 15.6667 12.0002 15.6667C11.4697 15.6667 10.961 15.8774 10.5859 16.2525C10.2109 16.6276 10.0002 17.1363 10.0002 17.6667C10.0002 18.1971 10.2109 18.7058 10.5859 19.0809C10.961 19.456 11.4697 19.6667 12.0002 19.6667Z" fill="#FFBD83"/>
</svg>
